<svg xmlns="http://www.w3.org/2000/svg" xmlns:xlink="http://www.w3.org/1999/xlink" width="1200" zoomAndPan="magnify" viewBox="0 0 900 449.999984" height="600" preserveAspectRatio="xMidYMid meet" version="1.0"><rect x="-90" width="1080" fill="#ffffff" y="-44.999998" height="539.99998" fill-opacity="1"/><rect x="-90" width="1080" fill="#1a1f3d" y="-44.999998" height="539.99998" fill-opacity="1"/><path fill="#797a9e" d="M 851.324219 118.628906 L 820.894531 118.628906 C 820.894531 118.628906 813.976562 118.75 813.976562 118.75 C 811.695312 118.75 809.285156 118.933594 806.917969 119.0625 C 804.542969 119.195312 802.183594 119.316406 799.695312 119.613281 C 789.957031 120.570312 779.609375 122.179688 768.363281 126.199219 C 765.5 127.359375 762.734375 128.34375 759.851562 129.777344 C 756.960938 131.300781 754.125 132.582031 751.269531 134.566406 L 747.050781 137.402344 C 745.664062 138.410156 744.316406 139.585938 742.976562 140.699219 C 740.242188 142.875 737.808594 145.496094 735.414062 148.117188 C 733.011719 150.726562 731.0625 153.652344 729.015625 156.496094 C 727.320312 159.394531 725.441406 162.398438 724.117188 165.347656 C 722.8125 168.28125 721.375 171.335938 720.511719 174.199219 C 719.519531 177.113281 718.574219 180.054688 717.988281 182.816406 L 717.007812 187.035156 C 716.71875 188.386719 716.5625 189.472656 716.335938 190.710938 C 715.925781 193.101562 715.464844 195.539062 715.195312 197.863281 C 714.515625 202.605469 714.0625 207.210938 713.671875 211.761719 C 712.261719 229.863281 712.453125 246.027344 711.148438 260.074219 C 710.523438 267.089844 709.597656 273.574219 708.144531 279.492188 C 706.691406 285.367188 704.734375 290.769531 702.140625 296.15625 C 697.058594 306.730469 689.835938 315.660156 682.28125 320.464844 C 674.691406 325.3125 667.390625 326.664062 658.234375 325.183594 C 649.25 323.609375 640.523438 318.691406 634.402344 311.769531 C 631.339844 308.324219 628.929688 304.441406 627.300781 300.378906 C 626.925781 299.351562 626.632812 298.308594 626.222656 297.289062 C 625.980469 296.234375 625.742188 295.183594 625.4375 294.136719 C 625.316406 293.050781 625.152344 292.03125 624.953125 290.917969 C 624.863281 289.457031 624.671875 288.0625 624.628906 286.539062 C 623.960938 274.589844 625.996094 260.066406 627.9375 243.023438 C 628.878906 234.539062 629.6875 225.269531 629.695312 215.390625 C 629.667969 205.703125 629.058594 196.359375 627.695312 186.777344 C 624.960938 167.75 619.476562 148.535156 610.050781 130.527344 C 607.683594 126.042969 605.152344 121.613281 602.296875 117.351562 C 600.941406 115.207031 599.417969 113.078125 597.773438 110.945312 C 596.144531 108.847656 594.621094 106.636719 592.863281 104.667969 C 586.074219 96.53125 578.3125 89.472656 570.042969 83.136719 C 561.714844 76.871094 552.628906 71.675781 543.089844 67.316406 C 533.5 63.042969 523.253906 59.953125 512.636719 57.984375 C 501.992188 56.0625 490.816406 55.738281 479.632812 56.863281 C 468.40625 57.925781 457.222656 61.25 446.71875 65.949219 C 444.109375 67.210938 441.515625 68.507812 438.945312 69.839844 C 436.476562 71.320312 434.074219 72.902344 431.652344 74.46875 C 429.183594 75.984375 426.972656 77.769531 424.777344 79.578125 C 422.621094 81.414062 420.261719 83.101562 418.328125 85.128906 C 410.035156 92.839844 403.421875 101.753906 397.761719 111.03125 C 392.316406 120.414062 388.214844 130.328125 385.160156 140.492188 C 382.417969 150.726562 380.511719 161.171875 380.148438 171.804688 C 379.886719 182.421875 380.417969 193.171875 382.90625 203.800781 C 383.375 206.460938 384.097656 209.097656 384.917969 211.726562 C 385.699219 214.285156 386.492188 217.140625 387.34375 219.429688 L 389.929688 226.199219 C 390.808594 228.4375 391.757812 230.519531 392.679688 232.675781 C 400.191406 249.671875 408.449219 263.78125 413.628906 276.113281 C 416.320312 282.292969 418.007812 287.820312 419.023438 293.007812 C 419.992188 298.203125 420.375 302.980469 419.6875 307.984375 C 419.105469 312.953125 417.902344 318.273438 415.796875 323.144531 C 414.960938 325.671875 413.535156 327.960938 412.375 330.371094 C 411.742188 331.542969 410.90625 332.625 410.207031 333.78125 L 409.136719 335.496094 L 407.867188 337.097656 C 401.359375 345.851562 392.148438 353.007812 381.800781 358.082031 C 376.535156 360.421875 371.089844 362.441406 365.441406 363.6875 C 359.800781 364.773438 354.074219 365.695312 348.390625 365.460938 C 325.292969 365.390625 301.96875 354.078125 285.414062 335.738281 C 277.023438 326.6875 270.671875 315.816406 266.257812 304.46875 C 265.160156 301.625 264.351562 298.679688 263.445312 295.800781 L 262.472656 291.421875 C 262.113281 289.976562 261.757812 288.523438 261.609375 286.941406 C 261.191406 283.851562 260.636719 280.824219 260.523438 277.488281 L 260.175781 272.589844 L 260.113281 267.453125 C 259.9375 253.703125 261.539062 238.5 263.039062 221.917969 C 264.449219 205.367188 265.910156 187.375 264.1875 167.820312 C 262.417969 148.386719 256.847656 127.210938 246.527344 109.195312 C 241.550781 100.066406 235.429688 91.738281 228.765625 84.070312 C 222.113281 76.347656 214.691406 69.507812 206.832031 63.371094 C 199.007812 57.175781 190.644531 51.824219 181.949219 47.21875 C 177.640625 44.816406 173.140625 42.839844 168.6875 40.777344 C 164.125 38.953125 159.609375 37.046875 154.917969 35.566406 C 150.304688 33.914062 145.5 32.695312 140.800781 31.40625 C 136.230469 30.371094 131.644531 29.257812 127.09375 28.488281 C 117.964844 26.757812 108.902344 25.652344 99.992188 24.894531 C 64.28125 21.929688 30.957031 24.546875 0.175781 24.40625 L 0 86.628906 C 34.054688 86.644531 65.675781 84.363281 94.691406 86.90625 C 101.933594 87.515625 108.992188 88.394531 115.796875 89.691406 C 119.242188 90.257812 122.53125 91.09375 125.882812 91.824219 C 128.992188 92.710938 132.070312 93.433594 135.082031 94.546875 C 138.144531 95.480469 141.078125 96.785156 144.0625 97.933594 C 146.945312 99.316406 149.902344 100.550781 152.664062 102.136719 C 158.292969 105.105469 163.65625 108.542969 168.527344 112.421875 C 173.445312 116.261719 178.015625 120.449219 181.933594 125.050781 C 185.882812 129.613281 189.460938 134.417969 192.210938 139.558594 C 194.976562 144.703125 197.457031 149.882812 198.867188 155.539062 C 200.660156 161.023438 201.488281 167.132812 202.21875 173.425781 C 203.394531 186.21875 202.445312 200.742188 201.0625 216.460938 C 199.695312 232.171875 197.738281 249.28125 197.902344 267.992188 L 198.007812 275.015625 L 198.484375 282.25 C 198.710938 287.027344 199.488281 292.015625 200.199219 296.949219 C 200.496094 299.402344 201.042969 301.902344 201.617188 304.40625 L 203.332031 311.894531 C 204.761719 316.757812 206.195312 321.640625 208 326.359375 C 215.238281 345.21875 225.710938 362.753906 239.320312 377.566406 C 252.925781 392.335938 269.113281 405.035156 287.738281 413.675781 C 306.25 422.390625 326.796875 427.644531 347.753906 427.699219 C 389.851562 428.125 431.21875 409.132812 457.441406 374.703125 L 459.886719 371.492188 L 462.105469 368.097656 C 463.550781 365.808594 465.089844 363.582031 466.40625 361.214844 C 468.9375 356.402344 471.566406 351.640625 473.457031 346.503906 C 477.648438 336.4375 480.261719 325.808594 481.53125 314.703125 C 482.914062 303.597656 482.175781 291.980469 480.113281 281.285156 C 478.042969 270.5625 474.671875 260.578125 470.914062 251.875 C 463.367188 234.355469 455.125 220.40625 449.632812 207.679688 C 448.972656 206.105469 448.222656 204.503906 447.625 202.964844 L 445.875 198.375 C 445.308594 196.871094 445.117188 195.785156 444.683594 194.476562 C 444.265625 193.242188 443.890625 191.980469 443.707031 190.632812 C 442.394531 185.460938 442.246094 179.847656 442.304688 174.304688 C 442.464844 168.699219 443.578125 163.128906 444.945312 157.6875 C 446.613281 152.34375 448.71875 147.191406 451.410156 142.527344 C 454.246094 138.027344 457.320312 133.753906 460.964844 130.4375 C 461.785156 129.464844 462.847656 128.90625 463.742188 128.082031 C 464.664062 127.296875 465.570312 126.488281 466.605469 125.941406 L 469.554688 124.007812 C 470.617188 123.539062 471.652344 123.03125 472.679688 122.503906 C 481.121094 118.542969 491.210938 117.480469 501.878906 119.28125 C 507.1875 120.328125 512.59375 121.859375 517.816406 124.199219 C 522.992188 126.617188 528.085938 129.457031 532.714844 132.953125 C 537.265625 136.515625 541.609375 140.378906 545.203125 144.722656 C 546.179688 145.757812 546.894531 146.949219 547.773438 148.027344 C 548.632812 149.097656 549.476562 150.246094 550.277344 151.542969 C 551.949219 154.007812 553.429688 156.644531 554.855469 159.316406 C 560.511719 170.074219 564.167969 182.457031 566.046875 195.503906 C 566.988281 201.980469 567.421875 208.855469 567.441406 215.382812 C 567.441406 221.726562 566.902344 228.65625 566.046875 236.28125 C 564.457031 251.429688 561.496094 269.175781 562.453125 289.699219 C 562.550781 292.230469 562.835938 294.871094 563.039062 297.445312 C 563.421875 300.34375 563.882812 303.328125 564.367188 306.246094 C 565.039062 309.144531 565.726562 312.039062 566.511719 314.902344 C 567.441406 317.714844 568.355469 320.542969 569.417969 323.304688 C 573.792969 334.3125 580.105469 344.382812 587.808594 353.050781 C 603.203125 370.394531 624.246094 382.3125 647.207031 386.417969 C 658.652344 388.410156 670.894531 388.601562 682.933594 386.199219 C 694.953125 383.859375 706.414062 378.976562 716.222656 372.570312 C 726.082031 366.167969 734.335938 358.324219 741.199219 349.933594 C 748.078125 341.527344 753.621094 332.527344 758.121094 323.234375 C 762.585938 314.023438 766.144531 304.09375 768.5625 294.214844 C 770.976562 284.375 772.273438 274.746094 773.089844 265.617188 C 774.683594 247.339844 774.464844 231.003906 775.65625 216.765625 C 775.96875 213.242188 776.308594 209.777344 776.78125 206.488281 C 776.960938 204.792969 777.292969 203.242188 777.554688 201.640625 C 777.695312 200.882812 777.824219 199.960938 777.964844 199.335938 L 778.382812 197.636719 C 779.53125 193.109375 780.835938 190.4375 782.167969 189.125 C 783.472656 187.734375 785.34375 186.234375 789.46875 184.703125 C 793.5 183.207031 799.285156 182.101562 805.664062 181.519531 C 807.199219 181.320312 808.894531 181.238281 810.566406 181.152344 C 812.246094 181.066406 813.882812 180.917969 815.65625 180.925781 L 820.894531 180.832031 L 826.960938 180.832031 C 826.960938 180.832031 851.289062 180.832031 851.289062 180.832031 L 899.9375 180.832031 L 899.9375 118.628906 L 851.289062 118.628906 Z M 851.324219 118.628906 " fill-opacity="1" fill-rule="nonzero"/><path fill="#d8dbde" d="M 19.164062 52.34375 L 19.261719 57.453125 L 46.9375 56.871094 L 46.847656 51.753906 Z M 19.164062 52.34375 " fill-opacity="1" fill-rule="nonzero"/><path fill="#d8dbde" d="M 83.664062 52.023438 L 83.4375 57.132812 C 92.601562 57.550781 101.742188 58.308594 110.808594 59.535156 L 111.503906 54.46875 C 102.253906 53.207031 92.949219 52.449219 83.664062 52.023438 Z M 83.664062 52.023438 " fill-opacity="1" fill-rule="nonzero"/><path fill="#d8dbde" d="M 147.726562 62.839844 L 146.039062 67.671875 C 154.613281 70.691406 162.914062 74.503906 170.792969 79.039062 L 173.359375 74.617188 C 165.195312 69.910156 156.605469 65.976562 147.726562 62.839844 Z M 147.726562 62.839844 " fill-opacity="1" fill-rule="nonzero"/><path fill="#d8dbde" d="M 204.054688 98.648438 L 200.347656 102.171875 C 206.570312 108.769531 212.070312 116.035156 216.613281 123.867188 L 221.035156 121.300781 C 216.273438 113.113281 210.53125 105.523438 204.046875 98.648438 Z M 204.054688 98.648438 " fill-opacity="1" fill-rule="nonzero"/><path fill="#d8dbde" d="M 234.132812 156.375 L 229.113281 157.367188 C 230.164062 161.78125 230.496094 166.332031 231.078125 170.832031 C 231.304688 173.09375 231.347656 175.375 231.488281 177.644531 C 231.617188 179.917969 231.75 182.199219 231.695312 184.476562 L 236.816406 184.425781 C 236.867188 182.085938 236.734375 179.742188 236.605469 177.402344 C 236.457031 175.0625 236.414062 172.710938 236.179688 170.371094 C 235.570312 165.695312 235.230469 160.988281 234.132812 156.375 Z M 234.132812 156.375 " fill-opacity="1" fill-rule="nonzero"/><path fill="#d8dbde" d="M 234.855469 221.300781 L 229.765625 220.839844 C 228.957031 230.023438 228.015625 239.222656 227.46875 248.488281 L 232.566406 248.804688 C 233.105469 239.664062 234.046875 230.5 234.855469 221.300781 Z M 234.855469 221.300781 " fill-opacity="1" fill-rule="nonzero"/><path fill="#d8dbde" d="M 233.140625 286.453125 L 228.066406 287.078125 L 229.058594 294.042969 C 229.441406 296.359375 230.0625 298.628906 230.546875 300.925781 C 231.417969 305.558594 233.105469 309.953125 234.457031 314.441406 L 239.269531 312.710938 C 237.980469 308.394531 236.34375 304.171875 235.527344 299.742188 C 235.054688 297.542969 234.464844 295.375 234.097656 293.144531 L 233.152344 286.445312 Z M 233.140625 286.453125 " fill-opacity="1" fill-rule="nonzero"/><path fill="#d8dbde" d="M 256.046875 344.183594 L 251.914062 347.191406 C 257.527344 354.6875 263.671875 361.859375 270.800781 367.96875 L 274.195312 364.148438 C 267.335938 358.28125 261.445312 351.378906 256.039062 344.183594 Z M 256.046875 344.183594 " fill-opacity="1" fill-rule="nonzero"/><path fill="#d8dbde" d="M 304.003906 383.625 L 301.878906 388.28125 C 306.09375 390.371094 310.574219 391.824219 314.996094 393.414062 C 317.230469 394.136719 319.53125 394.660156 321.792969 395.289062 L 325.203125 396.191406 L 328.675781 396.800781 L 329.617188 391.769531 L 326.300781 391.195312 L 323.046875 390.335938 C 320.886719 389.734375 318.6875 389.246094 316.554688 388.550781 C 312.332031 387.019531 308.042969 385.644531 304.011719 383.632812 Z M 304.003906 383.625 " fill-opacity="1" fill-rule="nonzero"/><path fill="#d8dbde" d="M 366.605469 392.101562 L 367.476562 397.140625 C 376.726562 395.503906 385.855469 392.886719 394.367188 388.863281 L 392.246094 384.207031 C 384.125 388.046875 375.414062 390.542969 366.597656 392.101562 Z M 366.605469 392.101562 " fill-opacity="1" fill-rule="nonzero"/><path fill="#d8dbde" d="M 421.488281 364.234375 L 425.082031 367.871094 C 431.777344 361.222656 437.476562 353.597656 442.046875 345.339844 L 437.554688 342.886719 C 433.230469 350.683594 427.832031 357.90625 421.488281 364.226562 Z M 421.488281 364.234375 " fill-opacity="1" fill-rule="nonzero"/><path fill="#d8dbde" d="M 447.808594 309.289062 L 452.898438 309.726562 C 453.734375 300.292969 452.847656 290.71875 450.53125 281.589844 L 445.570312 282.832031 C 447.761719 291.5 448.582031 300.449219 447.796875 309.289062 Z M 447.808594 309.289062 " fill-opacity="1" fill-rule="nonzero"/><path fill="#d8dbde" d="M 431.445312 248.054688 L 436.015625 245.757812 C 431.855469 237.488281 427.589844 229.34375 423.828125 221.003906 L 419.164062 223.101562 C 423.011719 231.625 427.3125 239.839844 431.445312 248.054688 Z M 431.445312 248.054688 " fill-opacity="1" fill-rule="nonzero"/><path fill="#d8dbde" d="M 408.710938 187.183594 L 413.804688 186.671875 C 412.949219 177.707031 413.097656 168.578125 414.832031 159.699219 L 409.800781 158.804688 C 407.988281 168.140625 407.824219 177.742188 408.71875 187.191406 Z M 408.710938 187.183594 " fill-opacity="1" fill-rule="nonzero"/><path fill="#d8dbde" d="M 422.992188 123.667969 L 427.355469 126.339844 C 431.992188 118.601562 438.042969 111.769531 444.917969 106.042969 L 441.671875 102.09375 C 434.316406 108.210938 427.902344 115.488281 422.992188 123.660156 Z M 422.992188 123.667969 " fill-opacity="1" fill-rule="nonzero"/><path fill="#d8dbde" d="M 477.371094 85.582031 L 478.269531 90.621094 C 487.101562 88.941406 496.230469 89.132812 505.117188 90.492188 L 505.902344 85.433594 C 496.511719 84 486.804688 83.789062 477.371094 85.582031 Z M 477.371094 85.582031 " fill-opacity="1" fill-rule="nonzero"/><path fill="#d8dbde" d="M 541.269531 97.898438 L 538.746094 102.34375 C 546.667969 106.722656 553.898438 112.320312 560.382812 118.59375 L 563.953125 114.929688 C 557.144531 108.34375 549.574219 102.492188 541.269531 97.898438 Z M 541.269531 97.898438 " fill-opacity="1" fill-rule="nonzero"/><path fill="#d8dbde" d="M 585.960938 145.226562 L 581.390625 147.523438 C 585.421875 155.644531 588.695312 164.171875 591 172.972656 L 595.945312 171.648438 C 593.550781 162.546875 590.164062 153.6875 585.960938 145.226562 Z M 585.960938 145.226562 " fill-opacity="1" fill-rule="nonzero"/><path fill="#d8dbde" d="M 601.472656 210.117188 L 596.363281 210.273438 C 596.710938 219.378906 596.03125 228.480469 595.074219 237.609375 L 600.15625 238.152344 C 601.121094 228.925781 601.828125 219.527344 601.472656 210.117188 Z M 601.472656 210.117188 " fill-opacity="1" fill-rule="nonzero"/><path fill="#d8dbde" d="M 596.535156 274.433594 L 591.425781 274.199219 C 591.097656 283.527344 591.121094 292.945312 593.230469 302.3125 L 598.214844 301.1875 C 596.273438 292.648438 596.195312 283.449219 596.535156 274.433594 Z M 596.535156 274.433594 " fill-opacity="1" fill-rule="nonzero"/><path fill="#d8dbde" d="M 614.527344 331.734375 L 610.785156 335.226562 C 617.222656 342.207031 625.039062 347.898438 633.648438 351.917969 L 635.832031 347.296875 C 627.808594 343.554688 620.511719 338.246094 614.515625 331.734375 Z M 614.527344 331.734375 " fill-opacity="1" fill-rule="nonzero"/><path fill="#d8dbde" d="M 671.425781 353.519531 L 672 358.601562 C 681.488281 357.558594 690.703125 354.285156 698.808594 349.308594 L 696.128906 344.949219 C 688.605469 349.558594 680.15625 352.5625 671.425781 353.519531 Z M 671.425781 353.519531 " fill-opacity="1" fill-rule="nonzero"/><path fill="#d8dbde" d="M 720.835938 320.125 L 725.117188 322.929688 C 730.261719 315.035156 734.351562 306.503906 737.398438 297.609375 L 732.558594 295.957031 C 729.652344 304.453125 725.726562 312.632812 720.835938 320.125 Z M 720.835938 320.125 " fill-opacity="1" fill-rule="nonzero"/><path fill="#d8dbde" d="M 739.3125 260.796875 L 744.414062 261.214844 C 745.167969 251.9375 745.414062 242.675781 745.761719 233.46875 L 740.652344 233.277344 C 740.304688 242.519531 740.0625 251.703125 739.320312 260.796875 Z M 739.3125 260.796875 " fill-opacity="1" fill-rule="nonzero"/><path fill="#d8dbde" d="M 851.324219 118.628906 L 820.894531 118.628906 C 820.894531 118.628906 813.976562 118.75 813.976562 118.75 C 811.695312 118.75 809.285156 118.933594 806.917969 119.0625 C 804.542969 119.195312 802.183594 119.316406 799.695312 119.613281 C 789.957031 120.570312 779.609375 122.179688 768.363281 126.199219 C 765.5 127.359375 762.734375 128.34375 759.851562 129.777344 C 756.960938 131.300781 754.125 132.582031 751.269531 134.566406 L 747.050781 137.402344 C 745.664062 138.410156 744.316406 139.585938 742.976562 140.699219 C 740.242188 142.875 737.808594 145.496094 735.414062 148.117188 C 733.011719 150.726562 731.0625 153.652344 729.015625 156.496094 C 727.320312 159.394531 725.441406 162.398438 724.117188 165.347656 C 722.8125 168.28125 721.375 171.335938 720.511719 174.199219 C 719.519531 177.113281 718.574219 180.054688 717.988281 182.816406 L 717.007812 187.035156 C 716.71875 188.386719 716.5625 189.472656 716.335938 190.710938 C 715.925781 193.101562 715.464844 195.539062 715.195312 197.863281 C 714.515625 202.605469 714.0625 207.210938 713.671875 211.761719 C 712.261719 229.863281 712.453125 246.027344 711.148438 260.074219 C 710.523438 267.089844 709.597656 273.574219 708.144531 279.492188 C 706.691406 285.367188 704.734375 290.769531 702.140625 296.15625 C 697.058594 306.730469 689.835938 315.660156 682.28125 320.464844 C 674.691406 325.3125 667.390625 326.664062 658.234375 325.183594 C 649.25 323.609375 640.523438 318.691406 634.402344 311.769531 C 631.339844 308.324219 628.929688 304.441406 627.300781 300.378906 C 626.925781 299.351562 626.632812 298.308594 626.222656 297.289062 C 625.980469 296.234375 625.742188 295.183594 625.4375 294.136719 C 625.316406 293.050781 625.152344 292.03125 624.953125 290.917969 C 624.863281 289.457031 624.671875 288.0625 624.628906 286.539062 C 623.960938 274.589844 625.996094 260.066406 627.9375 243.023438 C 628.878906 234.539062 629.6875 225.269531 629.695312 215.390625 C 629.667969 205.703125 629.058594 196.359375 627.695312 186.777344 C 624.960938 167.75 619.476562 148.535156 610.050781 130.527344 C 607.683594 126.042969 605.152344 121.613281 602.296875 117.351562 C 600.941406 115.207031 599.417969 113.078125 597.773438 110.945312 C 596.144531 108.847656 594.621094 106.636719 592.863281 104.667969 C 586.074219 96.53125 578.3125 89.472656 570.042969 83.136719 C 561.714844 76.871094 552.628906 71.675781 543.089844 67.316406 C 533.5 63.042969 523.253906 59.953125 512.636719 57.984375 C 501.992188 56.0625 490.816406 55.738281 479.632812 56.863281 C 468.40625 57.925781 457.222656 61.25 446.71875 65.949219 C 444.109375 67.210938 441.515625 68.507812 438.945312 69.839844 C 436.476562 71.320312 434.074219 72.902344 431.652344 74.46875 C 429.183594 75.984375 426.972656 77.769531 424.777344 79.578125 C 422.621094 81.414062 420.261719 83.101562 418.328125 85.128906 C 410.035156 92.839844 403.421875 101.753906 397.761719 111.03125 C 392.316406 120.414062 388.214844 130.328125 385.160156 140.492188 C 382.417969 150.726562 380.511719 161.171875 380.148438 171.804688 C 379.886719 182.421875 380.417969 193.171875 382.90625 203.800781 C 383.375 206.460938 384.097656 209.097656 384.917969 211.726562 C 385.699219 214.285156 386.492188 217.140625 387.34375 219.429688 L 389.929688 226.199219 C 390.808594 228.4375 391.757812 230.519531 392.679688 232.675781 C 400.191406 249.671875 408.449219 263.78125 413.628906 276.113281 C 416.320312 282.292969 418.007812 287.820312 419.023438 293.007812 C 419.992188 298.203125 420.375 302.980469 419.6875 307.984375 C 419.105469 312.953125 417.902344 318.273438 415.796875 323.144531 C 414.960938 325.671875 413.535156 327.960938 412.375 330.371094 C 411.742188 331.542969 410.90625 332.625 410.207031 333.78125 L 409.136719 335.496094 L 407.867188 337.097656 C 401.359375 345.851562 392.148438 353.007812 381.800781 358.082031 C 376.535156 360.421875 371.089844 362.441406 365.441406 363.6875 C 359.800781 364.773438 354.074219 365.695312 348.390625 365.460938 C 325.292969 365.390625 301.96875 354.078125 285.414062 335.738281 C 277.023438 326.6875 270.671875 315.816406 266.257812 304.46875 C 265.160156 301.625 264.351562 298.679688 263.445312 295.800781 L 262.472656 291.421875 C 262.113281 289.976562 261.757812 288.523438 261.609375 286.941406 C 261.191406 283.851562 260.636719 280.824219 260.523438 277.488281 L 260.175781 272.589844 L 260.113281 267.453125 C 259.9375 253.703125 261.539062 238.5 263.039062 221.917969 C 264.449219 205.367188 265.910156 187.375 264.1875 167.820312 C 262.417969 148.386719 256.847656 127.210938 246.527344 109.195312 C 241.550781 100.066406 235.429688 91.738281 228.765625 84.070312 C 222.113281 76.347656 214.691406 69.507812 206.832031 63.371094 C 199.007812 57.175781 190.644531 51.824219 181.949219 47.21875 C 177.640625 44.816406 173.140625 42.839844 168.6875 40.777344 C 164.125 38.953125 159.609375 37.046875 154.917969 35.566406 C 150.304688 33.914062 145.5 32.695312 140.800781 31.40625 C 136.230469 30.371094 131.644531 29.257812 127.09375 28.488281 C 117.964844 26.757812 108.902344 25.652344 99.992188 24.894531 C 64.28125 21.929688 30.957031 24.546875 0.175781 24.40625 L 0.148438 32.074219 C 31.332031 32.199219 64.449219 29.621094 99.339844 32.554688 C 108.050781 33.292969 116.859375 34.375 125.699219 36.054688 C 130.121094 36.792969 134.542969 37.871094 138.957031 38.871094 C 143.464844 40.109375 148.050781 41.265625 152.472656 42.859375 C 156.953125 44.269531 161.289062 46.105469 165.648438 47.847656 C 169.914062 49.832031 174.222656 51.710938 178.335938 54.015625 C 186.65625 58.421875 194.648438 63.539062 202.105469 69.449219 C 209.601562 75.296875 216.675781 81.816406 222.984375 89.144531 C 229.320312 96.425781 235.125 104.320312 239.824219 112.953125 C 249.582031 130.011719 254.832031 149.917969 256.535156 168.535156 C 258.191406 187.261719 256.789062 204.816406 255.386719 221.265625 C 253.90625 237.734375 252.261719 253.179688 252.4375 267.542969 L 252.507812 272.910156 L 252.871094 278.097656 C 253.003906 281.605469 253.585938 284.878906 254.039062 288.195312 C 254.203125 289.882812 254.585938 291.464844 254.96875 293.042969 L 256.03125 297.800781 C 256.996094 300.925781 257.886719 304.113281 259.070312 307.183594 C 263.828125 319.464844 270.695312 331.160156 279.722656 340.917969 C 297.527344 360.65625 322.855469 373.066406 348.304688 373.15625 C 354.578125 373.398438 360.894531 372.414062 367.09375 371.195312 C 373.296875 369.832031 379.296875 367.628906 385.082031 365.035156 C 396.464844 359.464844 406.65625 351.5625 413.960938 341.761719 L 415.378906 339.960938 L 416.597656 338.039062 C 417.390625 336.75 418.304688 335.523438 419.023438 334.199219 C 420.355469 331.5 421.921875 328.90625 422.898438 326.054688 C 425.265625 320.535156 426.640625 314.574219 427.3125 308.839844 C 428.078125 303.085938 427.660156 297.464844 426.554688 291.589844 C 425.40625 285.714844 423.507812 279.640625 420.6875 273.15625 C 415.214844 260.179688 406.960938 246.089844 399.695312 229.621094 C 397.859375 225.546875 396.179688 221.230469 394.550781 216.863281 C 393.734375 214.667969 393.019531 212.03125 392.28125 209.628906 C 391.503906 207.175781 390.835938 204.703125 390.402344 202.207031 C 388.050781 192.25 387.570312 182.136719 387.808594 172.144531 C 388.136719 162.136719 389.949219 152.285156 392.523438 142.640625 C 395.414062 133.066406 399.261719 123.738281 404.367188 114.9375 C 409.679688 106.253906 415.847656 97.90625 423.578125 90.734375 C 425.371094 88.839844 427.570312 87.289062 429.574219 85.574219 C 431.609375 83.894531 433.664062 82.222656 435.953125 80.832031 C 438.191406 79.378906 440.417969 77.90625 442.707031 76.53125 L 449.90625 72.9375 C 459.644531 68.59375 470 65.488281 480.453125 64.503906 C 490.871094 63.460938 501.304688 63.746094 511.289062 65.558594 C 521.246094 67.410156 530.894531 70.308594 539.949219 74.347656 C 548.945312 78.472656 557.546875 83.371094 565.421875 89.300781 C 573.230469 95.296875 580.574219 101.960938 586.972656 109.628906 C 593.410156 117.429688 598.800781 125.546875 603.230469 134.09375 C 612.183594 151.207031 617.441406 169.585938 620.078125 187.871094 C 621.390625 197.070312 621.984375 206.113281 622 215.410156 C 621.992188 224.851562 621.21875 233.824219 620.289062 242.207031 C 618.390625 259.011719 616.242188 273.929688 616.945312 286.941406 C 616.996094 288.585938 617.199219 290.136719 617.300781 291.734375 C 617.519531 293.066406 617.726562 294.339844 617.894531 295.644531 L 618.84375 299.472656 L 620.148438 303.214844 C 622.113281 308.140625 625.003906 312.78125 628.640625 316.871094 C 635.902344 325.078125 646.152344 330.855469 656.859375 332.746094 C 667.683594 334.589844 677.398438 332.78125 686.449219 326.898438 C 695.507812 321.082031 703.464844 311.046875 709.023438 299.5 C 711.84375 293.640625 714.003906 287.679688 715.578125 281.308594 C 717.152344 274.914062 718.121094 268.039062 718.773438 260.761719 C 720.105469 246.191406 719.914062 230.011719 721.296875 212.390625 C 721.679688 207.960938 722.125 203.503906 722.777344 198.933594 C 723.039062 196.679688 723.488281 194.355469 723.871094 192.058594 C 724.089844 190.882812 724.238281 189.8125 724.507812 188.550781 L 725.421875 184.644531 C 727.964844 174.339844 732.566406 162.761719 741.175781 153.171875 C 749.617188 143.527344 760.730469 137.054688 770.976562 133.414062 C 781.332031 129.699219 791.113281 128.160156 800.433594 127.246094 C 802.8125 126.957031 805.082031 126.84375 807.371094 126.714844 C 809.652344 126.59375 811.96875 126.417969 814.1875 126.417969 L 820.894531 126.304688 L 826.988281 126.304688 C 826.988281 126.304688 851.3125 126.304688 851.3125 126.304688 L 899.964844 126.304688 L 899.964844 118.636719 L 851.3125 118.636719 Z M 851.324219 118.628906 " fill-opacity="1" fill-rule="nonzero"/><path fill="#d8dbde" d="M 826.996094 173.179688 L 820.929688 173.179688 C 820.929688 173.179688 815.484375 173.285156 815.484375 173.285156 C 813.636719 173.285156 811.914062 173.425781 810.148438 173.519531 C 808.390625 173.617188 806.613281 173.695312 804.960938 173.910156 C 798.171875 174.539062 791.820312 175.714844 786.902344 177.515625 C 781.914062 179.34375 778.746094 181.542969 776.429688 184.09375 C 774.074219 186.574219 772.304688 190.5 770.964844 195.835938 L 770.480469 197.847656 C 770.3125 198.566406 770.183594 199.507812 770.035156 200.328125 C 769.757812 202.03125 769.40625 203.6875 769.214844 205.460938 C 768.71875 208.925781 768.363281 212.527344 768.042969 216.183594 C 766.824219 230.890625 767.03125 247.210938 765.484375 264.964844 C 764.683594 273.832031 763.4375 283.066406 761.140625 292.433594 C 758.84375 301.816406 755.484375 311.1875 751.246094 319.925781 C 746.980469 328.734375 741.742188 337.21875 735.300781 345.105469 C 728.867188 352.972656 721.175781 360.265625 712.0625 366.183594 C 703.003906 372.101562 692.488281 376.566406 681.472656 378.714844 C 670.445312 380.917969 659.183594 380.742188 648.597656 378.898438 C 627.363281 375.105469 607.832031 364.050781 593.585938 347.984375 C 586.449219 339.960938 580.617188 330.648438 576.589844 320.5 C 575.605469 317.960938 574.769531 315.339844 573.90625 312.753906 C 573.195312 310.109375 572.558594 307.445312 571.933594 304.773438 C 571.496094 302.074219 571.0625 299.335938 570.703125 296.664062 C 570.511719 294.226562 570.242188 291.734375 570.15625 289.324219 C 569.234375 269.855469 572.078125 252.511719 573.714844 237.125 C 574.578125 229.394531 575.152344 222.179688 575.152344 215.398438 C 575.132812 208.480469 574.683594 201.300781 573.691406 194.441406 C 571.707031 180.664062 567.816406 167.429688 561.695312 155.785156 C 560.15625 152.886719 558.546875 150.03125 556.726562 147.339844 C 555.855469 145.941406 554.925781 144.667969 553.96875 143.46875 C 552.992188 142.257812 552.183594 140.945312 551.113281 139.796875 C 547.117188 134.984375 542.359375 130.71875 537.34375 126.820312 C 532.253906 122.972656 526.675781 119.847656 520.957031 117.183594 C 515.1875 114.609375 509.191406 112.886719 503.230469 111.726562 C 491.261719 109.683594 479.496094 110.847656 469.503906 115.53125 C 468.285156 116.15625 467.050781 116.757812 465.804688 117.332031 L 462.324219 119.59375 C 461.105469 120.257812 460.042969 121.1875 458.964844 122.101562 C 457.910156 123.050781 456.683594 123.746094 455.734375 124.851562 C 451.523438 128.714844 448.007812 133.554688 444.820312 138.648438 C 441.792969 143.894531 439.433594 149.628906 437.597656 155.574219 C 436.058594 161.605469 434.847656 167.777344 434.664062 174 C 434.578125 180.167969 434.769531 186.417969 436.230469 192.257812 C 436.449219 193.765625 436.867188 195.199219 437.335938 196.609375 C 437.816406 198.070312 438.078125 199.378906 438.6875 200.980469 C 439.902344 204.207031 441.140625 207.453125 442.644531 210.769531 C 448.390625 224.023438 456.632812 237.992188 463.882812 254.878906 C 467.511719 263.269531 470.679688 272.703125 472.609375 282.746094 C 474.542969 292.761719 475.238281 303.539062 473.941406 313.886719 C 472.757812 324.234375 470.320312 334.207031 466.378906 343.632812 C 464.621094 348.445312 462.140625 352.902344 459.773438 357.417969 C 458.539062 359.640625 457.085938 361.726562 455.734375 363.878906 L 453.65625 367.0625 L 451.359375 370.074219 C 426.769531 402.421875 387.570312 420.464844 347.867188 420.03125 C 328.078125 419.996094 308.632812 415.015625 291.070312 406.75 C 273.402344 398.558594 257.996094 386.472656 245.046875 372.414062 C 232.078125 358.308594 222.113281 341.597656 215.222656 323.660156 C 213.507812 319.167969 212.148438 314.53125 210.78125 309.910156 L 209.15625 302.808594 C 208.597656 300.4375 208.078125 298.0625 207.804688 295.714844 C 207.128906 291.003906 206.378906 286.261719 206.171875 281.65625 L 205.710938 274.710938 L 205.605469 267.914062 C 205.4375 249.8125 207.355469 232.9375 208.738281 217.125 C 210.128906 201.300781 211.140625 186.347656 209.894531 172.71875 C 209.121094 165.992188 208.214844 159.394531 206.265625 153.363281 C 204.699219 147.160156 201.984375 141.421875 198.945312 135.800781 C 195.925781 130.167969 192.027344 124.929688 187.746094 119.988281 C 183.5 115.007812 178.574219 110.484375 173.289062 106.367188 C 168.050781 102.199219 162.324219 98.523438 156.308594 95.347656 C 153.359375 93.667969 150.207031 92.335938 147.136719 90.875 C 143.960938 89.648438 140.828125 88.261719 137.5625 87.261719 C 134.351562 86.078125 131.0625 85.296875 127.753906 84.355469 C 124.253906 83.589844 120.808594 82.710938 117.222656 82.128906 C 110.128906 80.769531 102.828125 79.875 95.378906 79.238281 C 65.542969 76.636719 33.707031 78.960938 0.0625 78.933594 L 0.0351562 86.601562 C 34.089844 86.617188 65.710938 84.339844 94.726562 86.878906 C 101.964844 87.488281 109.023438 88.367188 115.832031 89.664062 C 119.277344 90.230469 122.566406 91.066406 125.917969 91.796875 C 129.023438 92.683594 132.105469 93.40625 135.117188 94.519531 C 138.179688 95.453125 141.113281 96.757812 144.097656 97.90625 C 146.980469 99.289062 149.9375 100.527344 152.699219 102.109375 C 158.328125 105.078125 163.691406 108.515625 168.5625 112.398438 C 173.480469 116.234375 178.050781 120.421875 181.964844 125.027344 C 185.917969 129.585938 189.496094 134.390625 192.246094 139.535156 C 195.011719 144.679688 197.492188 149.855469 198.902344 155.511719 C 200.695312 160.996094 201.523438 167.105469 202.253906 173.398438 C 203.429688 186.191406 202.480469 200.71875 201.097656 216.4375 C 199.730469 232.144531 197.773438 249.253906 197.9375 267.96875 L 198.042969 274.992188 L 198.519531 282.222656 C 198.746094 287 199.519531 291.988281 200.234375 296.921875 C 200.53125 299.378906 201.078125 301.875 201.652344 304.382812 L 203.367188 311.867188 C 204.796875 316.730469 206.230469 321.613281 208.03125 326.332031 C 215.273438 345.191406 225.742188 362.726562 239.355469 377.542969 C 252.957031 392.3125 269.148438 405.007812 287.773438 413.652344 C 306.285156 422.363281 326.832031 427.621094 347.789062 427.671875 C 389.886719 428.097656 431.253906 409.109375 457.476562 374.679688 L 459.921875 371.464844 L 462.140625 368.070312 C 463.585938 365.78125 465.125 363.554688 466.441406 361.1875 C 468.972656 356.375 471.601562 351.613281 473.488281 346.480469 C 477.683594 336.410156 480.296875 325.78125 481.566406 314.679688 C 482.949219 303.574219 482.210938 291.953125 480.148438 281.257812 C 478.078125 270.535156 474.707031 260.550781 470.949219 251.847656 C 463.402344 234.328125 455.160156 220.378906 449.667969 207.65625 C 449.007812 206.078125 448.257812 204.476562 447.660156 202.9375 L 445.910156 198.351562 C 445.34375 196.84375 445.152344 195.757812 444.71875 194.453125 C 444.300781 193.214844 443.925781 191.953125 443.742188 190.605469 C 442.429688 185.433594 442.28125 179.820312 442.339844 174.277344 C 442.496094 168.671875 443.613281 163.101562 444.976562 157.664062 C 446.648438 152.320312 448.753906 147.167969 451.445312 142.503906 C 454.28125 138.003906 457.355469 133.730469 461 130.414062 C 461.820312 129.4375 462.878906 128.882812 463.777344 128.054688 C 464.699219 127.269531 465.605469 126.460938 466.640625 125.914062 L 469.589844 123.980469 C 470.652344 123.511719 471.6875 123.007812 472.714844 122.476562 C 481.15625 118.515625 491.246094 117.453125 501.914062 119.253906 C 507.222656 120.300781 512.628906 121.832031 517.851562 124.171875 C 523.027344 126.59375 528.121094 129.429688 532.75 132.929688 C 537.300781 136.488281 541.644531 140.351562 545.238281 144.695312 C 546.214844 145.730469 546.925781 146.921875 547.804688 148.003906 C 548.667969 149.074219 549.511719 150.222656 550.3125 151.519531 C 551.984375 153.980469 553.464844 156.617188 554.890625 159.289062 C 560.546875 170.046875 564.203125 182.433594 566.082031 195.480469 C 567.023438 201.953125 567.457031 208.828125 567.476562 215.355469 C 567.476562 221.703125 566.9375 228.628906 566.082031 236.253906 C 564.492188 251.40625 561.53125 269.152344 562.488281 289.671875 C 562.585938 292.207031 562.871094 294.84375 563.070312 297.417969 C 563.453125 300.316406 563.917969 303.304688 564.402344 306.21875 C 565.074219 309.117188 565.761719 312.015625 566.542969 314.878906 C 567.476562 317.6875 568.390625 320.519531 569.453125 323.277344 C 573.828125 334.285156 580.140625 344.355469 587.839844 353.023438 C 603.238281 370.371094 624.28125 382.285156 647.242188 386.390625 C 658.6875 388.386719 670.929688 388.578125 682.96875 386.175781 C 694.988281 383.832031 706.449219 378.949219 716.257812 372.546875 C 726.117188 366.140625 734.367188 358.296875 741.234375 349.910156 C 748.109375 341.5 753.65625 332.503906 758.15625 323.207031 C 762.621094 314 766.179688 304.070312 768.597656 294.191406 C 771.007812 284.347656 772.304688 274.722656 773.125 265.589844 C 774.71875 247.316406 774.5 230.980469 775.691406 216.742188 C 776.003906 213.214844 776.34375 209.75 776.8125 206.460938 C 776.996094 204.765625 777.328125 203.214844 777.589844 201.613281 C 777.726562 200.855469 777.859375 199.933594 777.996094 199.308594 L 778.414062 197.609375 C 779.566406 193.085938 780.871094 190.414062 782.203125 189.097656 C 783.507812 187.707031 785.378906 186.210938 789.503906 184.679688 C 793.535156 183.179688 799.320312 182.074219 805.699219 181.492188 C 807.230469 181.292969 808.929688 181.214844 810.601562 181.125 C 812.28125 181.039062 813.917969 180.890625 815.691406 180.902344 L 820.929688 180.804688 L 826.996094 180.804688 C 826.996094 180.804688 851.324219 180.804688 851.324219 180.804688 L 899.972656 180.804688 L 899.972656 173.136719 L 826.996094 173.136719 Z M 826.996094 173.179688 " fill-opacity="1" fill-rule="nonzero"/><path fill="#d8dbde" d="M 744.167969 194.773438 L 749.199219 195.703125 C 750.695312 186.800781 753.820312 178.265625 759.277344 171.363281 L 755.292969 168.160156 C 749.113281 175.941406 745.742188 185.453125 744.167969 194.773438 Z M 744.167969 194.773438 " fill-opacity="1" fill-rule="nonzero"/><path fill="#d8dbde" d="M 788.390625 149.734375 L 789.476562 154.730469 C 798.304688 152.824219 807.433594 152.144531 816.5625 151.953125 L 816.457031 146.835938 C 807.121094 147.035156 797.703125 147.722656 788.390625 149.734375 Z M 788.390625 149.734375 " fill-opacity="1" fill-rule="nonzero"/><path fill="#d8dbde" d="M 853.152344 146.757812 L 880.835938 146.757812 L 880.835938 151.875 L 853.152344 151.875 Z M 853.152344 146.757812 " fill-opacity="1" fill-rule="nonzero"/></svg>